<?xml version="1.0" encoding="UTF-8"?>
<svg width="240" height="240" viewBox="0 0 240 240" fill="none" xmlns="http://www.w3.org/2000/svg">
  <rect width="240" height="240" fill="white"/>
  <path d="M120 60C93.49 60 72 81.49 72 108C72 134.51 93.49 156 120 156C146.51 156 168 134.51 168 108C168 81.49 146.51 60 120 60ZM120 144C100.1 144 84 127.9 84 108C84 88.1 100.1 72 120 72C139.9 72 156 88.1 156 108C156 127.9 139.9 144 120 144Z" fill="#CCCCCC"/>
  <path d="M120 84C106.75 84 96 94.75 96 108C96 121.25 106.75 132 120 132C133.25 132 144 121.25 144 108C144 94.75 133.25 84 120 84ZM120 120C113.37 120 108 114.63 108 108C108 101.37 113.37 96 120 96C126.63 96 132 101.37 132 108C132 114.63 126.63 120 120 120Z" fill="#CCCCCC"/>
  <path d="M120 168C80.24 168 48 200.24 48 240H192C192 200.24 159.76 168 120 168ZM120 180C153.14 180 180 206.86 180 240H60C60 206.86 86.86 180 120 180Z" fill="#CCCCCC"/>
</svg> 