<?xml version="1.0" standalone="no"?><!DOCTYPE svg PUBLIC "-//W3C//DTD SVG 1.1//EN" "http://www.w3.org/Graphics/SVG/1.1/DTD/svg11.dtd"><svg t="1733989773982" class="icon" viewBox="0 0 1566 1024" version="1.1" xmlns="http://www.w3.org/2000/svg" p-id="5115" xmlns:xlink="http://www.w3.org/1999/xlink" width="73.40625" height="48"><path d="M1560.495686 484.09098C1418.50102 197.37098 1123.187451 0 783.058824 0 442.930196 0 147.636706 197.37098 5.621961 484.09098a72.362667 72.362667 0 0 0 0 55.81804C147.616627 826.62902 442.930196 1024 783.058824 1024c340.128627 0 635.422118-197.37098 777.436862-484.09098a72.362667 72.362667 0 0 0 0-55.81804zM783.058824 841.527216c-183.155451 0-332.659451-145.227294-332.659451-331.414589 0-186.167216 145.769412-331.39451 332.659451-331.394509 186.890039 0 332.659451 145.227294 332.659451 331.394509 0 186.187294-149.504 331.414588-332.659451 331.414589z m0-539.929098c-115.852549 0-209.317647 93.083608-209.317648 208.514509 0 115.45098 93.44502 208.534588 209.317648 208.534589 115.852549 0 209.317647-93.103686 209.317647-208.534589S898.911373 301.618196 783.058824 301.618196z" fill="#1296db" p-id="5116"></path></svg>