<?xml version="1.0" standalone="no"?><!DOCTYPE svg PUBLIC "-//W3C//DTD SVG 1.1//EN" "http://www.w3.org/Graphics/SVG/1.1/DTD/svg11.dtd"><svg t="1733819549618" class="icon" viewBox="0 0 1024 1024" version="1.1" xmlns="http://www.w3.org/2000/svg" p-id="4276" xmlns:xlink="http://www.w3.org/1999/xlink" width="48" height="48"><path d="M618.368 905.813333a88.32 88.32 0 0 1-87.082667-87.082666v-209.408a88.362667 88.362667 0 0 1 87.082667-87.082667h209.408a88.234667 88.234667 0 0 1 87.082667 87.082667v209.408a88.192 88.192 0 0 1-87.082667 87.082666z m-22.912-296.490666v209.408a24.448 24.448 0 0 0 22.912 22.997333h209.408a24.704 24.704 0 0 0 23.168-22.997333v-209.408a24.661333 24.661333 0 0 0-23.168-22.912h-209.408a24.448 24.448 0 0 0-23.04 22.912zM224.853333 826.666667a260.010667 260.010667 0 0 1-69.077333-169.514667h-33.237333l66.090666-110.250667 66.346667 110.250667H219.733333a196.266667 196.266667 0 0 0 51.2 125.354667 213.333333 213.333333 0 0 0 148.992 59.264 32.042667 32.042667 0 1 1 0 64 277.034667 277.034667 0 0 1-195.029333-79.274667z m-28.842666-324.821334a88.405333 88.405333 0 0 1-87.082667-87.082666v-209.066667a88.448 88.448 0 0 1 87.082667-87.338667h209.408a88.405333 88.405333 0 0 1 87.082666 87.338667v209.066667a86.144 86.144 0 0 1-87.082666 87.082666z m-23.168-296.32v209.066667a24.917333 24.917333 0 0 0 23.168 23.168h209.408a22.272 22.272 0 0 0 23.168-23.168v-209.066667a24.704 24.704 0 0 0-23.168-23.168H196.010667a24.704 24.704 0 0 0-23.082667 23.125334z m596.181333 165.077334h35.328a196.693333 196.693333 0 0 0-51.2-128.853334 213.333333 213.333333 0 0 0-149.333333-59.434666 32.085333 32.085333 0 0 1 0-64 277.333333 277.333333 0 0 1 195.157333 79.232 261.205333 261.205333 0 0 1 69.504 173.184h32.853333l-62.421333 110.250666z" p-id="4277"></path></svg>