<?xml version="1.0" standalone="no"?><!DOCTYPE svg PUBLIC "-//W3C//DTD SVG 1.1//EN" "http://www.w3.org/Graphics/SVG/1.1/DTD/svg11.dtd"><svg t="1733908055794" class="icon" viewBox="0 0 1024 1024" version="1.1" xmlns="http://www.w3.org/2000/svg" p-id="8272" xmlns:xlink="http://www.w3.org/1999/xlink" width="48" height="48"><path d="M892.38645 417.231613c-3.651157-11.266601-13.45136-19.506263-25.186635-21.223371l-229.084489-33.269731-102.46365-207.580732c-10.517541-21.317515-45.441958-21.317515-55.960523 0l-102.46365 207.580732-229.084489 33.269731c-11.735275 1.717108-21.503756 9.925047-25.186635 21.223371-3.651157 11.329023-0.624217 23.720238 7.895831 31.990598l165.78993 161.607678-39.138392 228.148164c-1.997494 11.703553 2.808976 23.563672 12.390191 30.524201 9.643638 7.021927 22.37766 7.927553 32.895201 2.372024l204.895577-107.738793 204.864878 107.707071c4.556783 2.403746 9.582239 3.589758 14.544251 3.589758 6.460132 0 12.889565-1.997494 18.351973-5.961782 9.612938-6.959505 14.419408-18.819624 12.390191-30.524201l-39.137369-228.148164 165.78993-161.607678C893.01169 440.920128 896.03863 428.560636 892.38645 417.231613z" fill="#CCCCCC" p-id="8273"></path></svg>